<svg xmlns="http://www.w3.org/2000/svg" xmlns:xlink="http://www.w3.org/1999/xlink" width="1978.33" height="971.429" viewBox="0 0 1978.33 971.429">
  <defs>
    <linearGradient id="linear-gradient" x1="-6.483" y1="0.5" x2="-5.483" y2="0.5" gradientUnits="objectBoundingBox">
      <stop offset="0" stop-color="#837bec"/>
      <stop offset="0.306" stop-color="#869ae9"/>
      <stop offset="0.774" stop-color="#8dd1e4"/>
    </linearGradient>
    <linearGradient id="linear-gradient-2" x1="-12.669" y1="0.5" x2="-11.669" y2="0.5" xlink:href="#linear-gradient"/>
    <linearGradient id="linear-gradient-3" x1="-9.425" y1="0.5" x2="-8.425" y2="0.5" xlink:href="#linear-gradient"/>
    <linearGradient id="linear-gradient-4" x1="-19.551" y1="0.5" x2="-18.551" y2="0.5" xlink:href="#linear-gradient"/>
    <linearGradient id="linear-gradient-5" x1="-26.443" y1="0.518" x2="-26.699" y2="2.992" gradientUnits="objectBoundingBox">
      <stop offset="0" stop-color="#8dd1e4"/>
      <stop offset="0.145" stop-color="#a5b1cd"/>
      <stop offset="0.461" stop-color="#e36293"/>
      <stop offset="0.591" stop-color="#ff407a"/>
      <stop offset="1" stop-color="#a3007d"/>
    </linearGradient>
    <linearGradient id="linear-gradient-6" x1="-40.631" y1="-0.347" x2="-40.861" y2="2.185" xlink:href="#linear-gradient-5"/>
    <linearGradient id="linear-gradient-7" x1="-58.066" y1="-0.707" x2="-58.217" y2="0.861" xlink:href="#linear-gradient-5"/>
    <linearGradient id="linear-gradient-8" x1="-10.999" y1="3.388" x2="-10.566" y2="4.003" xlink:href="#linear-gradient"/>
    <linearGradient id="linear-gradient-9" x1="-10.848" y1="2.036" x2="-10.385" y2="2.629" xlink:href="#linear-gradient"/>
    <linearGradient id="linear-gradient-10" x1="-65.984" y1="-25.615" x2="-66.269" y2="-23.007" xlink:href="#linear-gradient-5"/>
    <linearGradient id="linear-gradient-11" x1="-100.763" y1="-40.262" x2="-101.02" y2="-37.594" xlink:href="#linear-gradient-5"/>
    <linearGradient id="linear-gradient-12" x1="-143.389" y1="-57.454" x2="-143.558" y2="-55.802" xlink:href="#linear-gradient-5"/>
    <linearGradient id="linear-gradient-13" x1="-24.409" y1="-1.369" x2="-23.89" y2="-0.807" xlink:href="#linear-gradient"/>
    <linearGradient id="linear-gradient-14" x1="-31.434" y1="-3.622" x2="-31.001" y2="-3.007" xlink:href="#linear-gradient"/>
    <linearGradient id="linear-gradient-15" x1="-25.624" y1="-6.535" x2="-25.262" y2="-5.806" xlink:href="#linear-gradient"/>
    <linearGradient id="linear-gradient-16" x1="-8.918" y1="0.5" x2="-7.918" y2="0.5" xlink:href="#linear-gradient"/>
    <linearGradient id="linear-gradient-17" x1="-41.638" y1="2.282" x2="-40.623" y2="2.282" xlink:href="#linear-gradient"/>
    <linearGradient id="linear-gradient-18" x1="-77.249" y1="-13.75" x2="-76.466" y2="-13.75" xlink:href="#linear-gradient"/>
    <linearGradient id="linear-gradient-19" x1="-2.92" y1="0.5" x2="-1.92" y2="0.5" xlink:href="#linear-gradient"/>
    <linearGradient id="linear-gradient-20" x1="-3.102" y1="0.5" x2="-2.102" y2="0.5" xlink:href="#linear-gradient"/>
    <linearGradient id="linear-gradient-21" x1="-35.475" y1="0.518" x2="-35.73" y2="2.992" xlink:href="#linear-gradient-5"/>
    <linearGradient id="linear-gradient-22" x1="-54.42" y1="-0.347" x2="-54.65" y2="2.185" xlink:href="#linear-gradient-5"/>
    <linearGradient id="linear-gradient-23" x1="-77.68" y1="-0.707" x2="-77.831" y2="0.861" xlink:href="#linear-gradient-5"/>
    <linearGradient id="linear-gradient-24" x1="-61.726" y1="-23.374" x2="-62.012" y2="-20.766" xlink:href="#linear-gradient-5"/>
    <linearGradient id="linear-gradient-25" x1="-94.262" y1="-36.841" x2="-94.519" y2="-34.173" xlink:href="#linear-gradient-5"/>
    <linearGradient id="linear-gradient-26" x1="-134.137" y1="-52.591" x2="-134.306" y2="-50.938" xlink:href="#linear-gradient-5"/>
  </defs>
  <g id="Group_689" data-name="Group 689" transform="translate(20.514 -57.282)">
    <g id="Group_648" data-name="Group 648" transform="translate(835.88 137.282)">
      <path id="Path_736" data-name="Path 736" d="M1138.9,179.924q-188.079,7.689-376.309-2.667c-11.522-.635-24.974-2.466-30.633-12.522-9.16-16.283,11.584-33.955,30.028-36.937a92.3,92.3,0,0,1,50.752,6.23c8.515-27.217,45.3-41.89,73.751-39.972s61.361,9.423,71.2,34.226c-4.786-32.33,2.742-59.765,44.147-69.972,13.752-3.389,74.028,0,87.592,35.131,5.1,13.216,0,31.407-5.059,41.877,14.385-5.882,29.328-11.869,44.854-11.214s31.836,9.912,35.5,25.014.561,34.082-25.818,30.807" transform="translate(-327.832 -137.282)" opacity="0.41" fill="url(#linear-gradient)"/>
      <path id="Path_737" data-name="Path 737" d="M1279.566,199.833q-135.24,5.526-270.588-1.918c-8.287-.457-17.958-1.771-22.029-9-6.585-11.708,8.331-24.416,21.592-26.559a66.352,66.352,0,0,1,36.493,4.478c6.123-19.573,32.573-30.12,53.032-28.743s44.12,6.776,51.193,24.612c-3.441-23.25,1.972-42.976,31.747-50.315,9.889-2.439,53.23,0,62.983,25.262,3.67,9.5,0,22.582-3.637,30.112,10.341-4.23,21.089-8.535,32.253-8.063s22.89,7.126,25.522,17.985.4,24.508-18.563,22.153" transform="translate(-177.098 -39.458)" opacity="0.41" fill="url(#linear-gradient-2)"/>
      <path id="Path_738" data-name="Path 738" d="M886.8,179.171q-106.332-2.036-212.663-4.069c-1.938-.037-4.106-.174-5.421-1.6a6.646,6.646,0,0,1-1.367-3.339A39.838,39.838,0,0,1,684.7,130.074c13.055-8.282,26.172-3.583,38.667,5.505-6.515-4.741-2.389-16.558.243-22.314,5.24-11.452,20.109-19.149,32.454-17.136,29.172,4.749,23.656,40.081,26.607,61.6,0,0,2.047-20.243,20.694-22.753,19.928-2.684,27.329,6.917,28.5,17.352a24.468,24.468,0,0,1,42.683,10.46c12.939-5.054,38.992-8.564,38.992,6.954-1.913,10.242-16.5,12.331-26.738,9.425" transform="translate(-317.715 -20.305)" opacity="0.41" fill="url(#linear-gradient-3)"/>
      <path id="Path_739" data-name="Path 739" d="M1105.724,198.4l-159.668-3.057c-1.456-.03-3.086-.129-4.069-1.2a4.975,4.975,0,0,1-1.03-2.508,29.908,29.908,0,0,1,13.023-30.1c9.8-6.22,19.65-2.692,29.03,4.133-4.892-3.56-1.794-12.435.184-16.757,3.935-8.6,15.1-14.375,24.371-12.864,21.9,3.565,17.759,30.092,19.972,46.251,0,0,1.536-15.2,15.536-17.082,14.965-2.015,20.523,5.193,21.4,13.03a18.372,18.372,0,0,1,32.05,7.852c9.713-3.793,29.274-6.431,29.274,5.22-1.437,7.691-12.385,9.259-20.077,7.078" transform="translate(-238.912 50.976)" opacity="0.41" fill="url(#linear-gradient-4)"/>
    </g>
    <g id="Group_662" data-name="Group 662" transform="translate(628.183 416.792)">
      <g id="Group_650" data-name="Group 650" transform="translate(-648.697 482.037)">
        <g id="Group_649" data-name="Group 649">
          <path id="Path_740" data-name="Path 740" d="M703.711,444.42c5.743-2.162,10.658-10.1,14.417-14.949a122.063,122.063,0,0,0,20.138-38.865,157.524,157.524,0,0,0-18.89,14.7,121.461,121.461,0,0,0,5.194-32.1q-8.526,14.26-17.05,28.52a55.128,55.128,0,0,0-5.577-30.279A216.832,216.832,0,0,0,694.6,394.94a61.467,61.467,0,0,0-12.729-21.073,237.046,237.046,0,0,0-.782,27.1L664.361,387.8a39.194,39.194,0,0,0,5.773,22.123,38.046,38.046,0,0,1-15.89-7.481,77,77,0,0,0,49.466,41.98" transform="translate(-654.244 -371.451)" fill="url(#linear-gradient-5)"/>
          <path id="Path_741" data-name="Path 741" d="M692.938,428.9c3.761-1.417,6.981-6.614,9.442-9.79a80.034,80.034,0,0,0,13.19-25.458,102.888,102.888,0,0,0-12.372,9.632,79.617,79.617,0,0,0,3.4-21.025q-5.585,9.342-11.17,18.681a36.077,36.077,0,0,0-3.651-19.835,142.162,142.162,0,0,0-4.811,15.389,40.307,40.307,0,0,0-8.336-13.806,155.176,155.176,0,0,0-.512,17.749q-5.481-4.311-10.956-8.625a25.7,25.7,0,0,0,3.78,14.491,24.907,24.907,0,0,1-10.407-4.9,50.436,50.436,0,0,0,32.4,27.5" transform="translate(-643.68 -355.242)" fill="url(#linear-gradient-6)"/>
          <path id="Path_742" data-name="Path 742" d="M687.022,420.2c2.644-1,4.907-4.653,6.64-6.887a56.321,56.321,0,0,0,9.276-17.9,72.555,72.555,0,0,0-8.7,6.772,55.9,55.9,0,0,0,2.392-14.783q-3.925,6.565-7.854,13.134a25.358,25.358,0,0,0-2.569-13.945,100.371,100.371,0,0,0-3.38,10.819,28.278,28.278,0,0,0-5.864-9.7,109.691,109.691,0,0,0-.362,12.48l-7.7-6.067a18.032,18.032,0,0,0,2.66,10.19,17.5,17.5,0,0,1-7.321-3.445A35.469,35.469,0,0,0,687.022,420.2" transform="translate(-637.469 -346.04)" fill="url(#linear-gradient-7)"/>
        </g>
      </g>
      <path id="Path_743" data-name="Path 743" d="M1000.66,477.663c-17.459-40.083-49.132-79.382-85.912-103.026-7.546-4.848-15.544-9.378-21.276-16.281-1.331-1.6-2.569-3.445-2.649-5.523-.2-5.574,7.229-7.808,12.788-7.3,26.211,2.4,45.982,24.429,60.677,46.268,10.867,16.152,17.189,26.066,25.541,43.654,5.657,11.912,10.832,42.207,10.832,42.207" transform="translate(-211.069 66.961)" fill="url(#linear-gradient-8)"/>
      <path id="Path_744" data-name="Path 744" d="M989.324,464.393c-15.29-40.962-44.808-81.9-80.271-107.478-7.275-5.247-15.022-10.2-20.376-17.4-1.24-1.669-2.382-3.579-2.347-5.66.091-5.577,7.64-7.409,13.155-6.6,26.05,3.8,44.61,26.853,58.113,49.448,9.989,16.712,15.769,26.95,23.168,44.958,5.009,12.2,8.558,42.73,8.558,42.73" transform="translate(-219.212 36.095)" fill="url(#linear-gradient-9)"/>
      <g id="Group_652" data-name="Group 652" transform="translate(1190.684 503.113)">
        <g id="Group_651" data-name="Group 651">
          <path id="Path_745" data-name="Path 745" d="M1084.02,433.205c4.487,1.819,11.582-.15,16.359-.954a96.4,96.4,0,0,0,32.473-11.759,124.072,124.072,0,0,0-18.823-1.583,96.035,96.035,0,0,0,20.189-15.831q-12.572,3.7-25.147,7.409a43.476,43.476,0,0,0,12.968-20.54,171.539,171.539,0,0,0-16.825,9.689,48.435,48.435,0,0,0,3.892-19.026,186.9,186.9,0,0,0-14.952,15.292q-1.326-8.293-2.652-16.583a30.918,30.918,0,0,0-8.491,15.914,30.079,30.079,0,0,1-5.213-12.839,60.761,60.761,0,0,0,6.223,50.811" transform="translate(-1074.839 -379.319)" fill="url(#linear-gradient-10)"/>
          <path id="Path_746" data-name="Path 746" d="M1081.85,421.664c2.941,1.189,7.586-.1,10.714-.627a63.089,63.089,0,0,0,21.271-7.7,81.579,81.579,0,0,0-12.33-1.037,62.734,62.734,0,0,0,13.222-10.369l-16.468,4.854a28.49,28.49,0,0,0,8.494-13.452,112.144,112.144,0,0,0-11.023,6.346,31.806,31.806,0,0,0,2.553-12.464,122.543,122.543,0,0,0-9.8,10.015l-1.736-10.862a20.223,20.223,0,0,0-5.561,10.425,19.652,19.652,0,0,1-3.415-8.411,39.8,39.8,0,0,0,4.074,33.282" transform="translate(-1073.162 -367.488)" fill="url(#linear-gradient-11)"/>
          <path id="Path_747" data-name="Path 747" d="M1080.7,415.264c2.065.836,5.336-.067,7.532-.439a44.275,44.275,0,0,0,14.958-5.419,57.983,57.983,0,0,0-8.668-.726,44.134,44.134,0,0,0,9.3-7.294q-5.794,1.712-11.582,3.418a20.027,20.027,0,0,0,5.973-9.464,79.306,79.306,0,0,0-7.752,4.465,22.275,22.275,0,0,0,1.795-8.767,86.82,86.82,0,0,0-6.887,7.045q-.61-3.817-1.219-7.639a14.279,14.279,0,0,0-3.913,7.331,13.831,13.831,0,0,1-2.4-5.912,27.971,27.971,0,0,0,2.863,23.4" transform="translate(-1072.103 -360.644)" fill="url(#linear-gradient-12)"/>
        </g>
      </g>
      <path id="Path_748" data-name="Path 748" d="M1041.372,543.927c22.964-82.052,73.569-166.392,138.232-221.88,13.264-11.384,27.491-22.273,36.711-37.129,2.135-3.445,4.037-7.34,3.624-11.371-1.093-10.814-16.045-13.136-26.629-10.666-49.957,11.66-82.216,59.477-104.73,105.568-16.65,34.088-26.2,54.918-37.605,91.1-7.725,24.512-9.6,84.377-9.6,84.377" transform="translate(59.666 -73.174)" fill="url(#linear-gradient-13)"/>
      <path id="Path_749" data-name="Path 749" d="M1055.031,477.332c22.083-50.7,62.142-100.406,108.665-130.308,9.544-6.137,19.666-11.866,26.915-20.593,1.679-2.025,3.249-4.358,3.346-6.989.26-7.05-9.148-9.876-16.171-9.233-33.156,3.038-58.156,30.9-76.746,58.523-13.744,20.43-21.743,32.969-32.3,55.212-7.152,15.067-13.7,53.388-13.7,53.388" transform="translate(82.595 7.633)" fill="url(#linear-gradient-14)"/>
      <path id="Path_750" data-name="Path 750" d="M1056.883,472.259c31.291-45.6,80.048-86.807,131.393-107.349,10.532-4.214,21.555-7.923,30.33-15.118,2.035-1.669,4.018-3.662,4.607-6.225,1.591-6.873-7.1-11.432-14.125-12.132-33.129-3.3-62.964,19.316-86.448,42.915-17.371,17.457-27.6,28.249-42.184,48.087-9.881,13.439-23.574,49.823-23.574,49.823" transform="translate(85.704 42.873)" fill="url(#linear-gradient-15)"/>
      <path id="Path_751" data-name="Path 751" d="M1333.054,691.355c9.1-2.253,9.506-8.4,9.137-17.77a21.226,21.226,0,0,0-17.2-19.487c11.58-10.717,15.381-28.991,9.038-43.437s-22.367-24.014-38.09-22.744c35.784-27.3,41.444-79.333,34.311-123.778-5.791-36.081-24.943-77.166-61.228-81.439,9.989,1.176,13.088-56.884,12.959-64.191-.581-33.183-18.593-98-63.586-87.075-31.525,7.65-41.292,58.4-45.671,84.886,3.681-6.156-3.257-14.36-10.431-14.3s-13.179,5.405-17.582,11.071a74.068,74.068,0,0,0-15.059,51.958c-14.912-19.825-48.751-12.7-63.95,6.9s-31.637,46.673-34.565,71.306c-4.634,38.982,1.674,76.834-9.482,114.472,5.114-5.74-1.682-15.627-9.367-15.82s-14.157,5.566-19.075,11.473A107.928,107.928,0,0,0,968.581,615.9c-38.479-1.1-72.977,37.611-67.467,75.709l431.94-.252" transform="translate(-176.752 -126.508)" fill="url(#linear-gradient-16)"/>
      <g id="Group_653" data-name="Group 653" transform="translate(725.618 303.296)">
        <path id="Path_752" data-name="Path 752" d="M968.247,381.25l-30.065,4.581c-2.041-13.372-26.1-14.508-30.151-41.08-3.308-21.713,12.019-35.776,34.932-39.266,23.352-3.557,39.839,5.66,49.825,21.2L969.163,346.1c-4.179-6.828-10.7-10.449-16.977-9.5-5.4.825-9.357,4.27-8.537,9.654C945.264,356.85,965.043,360.233,968.247,381.25Zm-7.677,50.576c-11.384,1.733-20.693-6.445-22.442-17.909-1.773-11.636,4.76-21.694,16.147-23.43s20.612,5.923,22.385,17.561C978.4,419.509,971.952,430.089,960.57,431.825Z" transform="translate(-907.583 -304.723)" fill="url(#linear-gradient-17)"/>
      </g>
      <g id="Group_655" data-name="Group 655" transform="translate(1240.268 243.516)">
        <path id="Path_754" data-name="Path 754" d="M1119.111,322.956l-10.969-10.835c4.819-4.878-2.009-15.006,7.567-24.7,7.822-7.918,18.183-5.947,26.54,2.312,8.521,8.411,9.769,17.907,6.474,26.674l-15.048-3.723c1.513-3.766,1.01-7.519-1.28-9.777-1.969-1.947-4.567-2.513-6.509-.549C1122.066,306.225,1126.684,315.29,1119.111,322.956Zm-22.884,12.2c-4.154-4.1-3.651-10.366.48-14.548,4.2-4.246,10.265-4.637,14.414-.533s3.839,10.174-.353,14.419C1106.637,338.674,1100.382,339.256,1096.228,335.155Z" transform="translate(-1093.35 -282.406)" fill="url(#linear-gradient-18)"/>
      </g>
      <g id="Group_656" data-name="Group 656" transform="translate(-615.294 557.62)">
        <path id="Path_755" data-name="Path 755" d="M682.754,419.037H2586.606c8.859,0,16.036-4.337,16.036-9.683h0c0-5.349-7.177-9.686-16.036-9.686H682.754c-8.858,0-16.04,4.337-16.04,9.686h0C666.714,414.7,673.9,419.037,682.754,419.037Z" transform="translate(-666.714 -399.668)" fill="url(#linear-gradient-19)"/>
        <path id="Path_756" data-name="Path 756" d="M694.868,432.077H2526.521c9.091,0,16.453-4.337,16.453-9.686h0c0-5.349-7.362-9.683-16.453-9.683H694.868c-9.082,0-16.449,4.334-16.449,9.683h0C678.419,427.741,685.786,432.077,694.868,432.077Z" transform="translate(-647.066 -377.778)" fill="url(#linear-gradient-20)"/>
      </g>
      <g id="Group_659" data-name="Group 659" transform="translate(1103.013 451.493)">
        <g id="Group_658" data-name="Group 658">
          <path id="Path_760" data-name="Path 760" d="M1113.79,465.788c8.326-3.134,15.448-14.633,20.891-21.665a176.87,176.87,0,0,0,29.184-56.319,228.57,228.57,0,0,0-27.376,21.306,175.932,175.932,0,0,0,7.53-46.509q-12.356,20.664-24.708,41.323a79.863,79.863,0,0,0-8.082-43.876,314.358,314.358,0,0,0-10.642,34.038,89.035,89.035,0,0,0-18.448-30.537,343.689,343.689,0,0,0-1.131,39.269q-12.118-9.539-24.236-19.08a56.794,56.794,0,0,0,8.363,32.053,55.033,55.033,0,0,1-23.026-10.841,111.594,111.594,0,0,0,71.68,60.837" transform="translate(-1042.109 -360.048)" fill="url(#linear-gradient-21)"/>
          <path id="Path_761" data-name="Path 761" d="M1098.179,443.3c5.451-2.052,10.117-9.584,13.683-14.189a115.841,115.841,0,0,0,19.115-36.89,150.076,150.076,0,0,0-17.931,13.956,115.189,115.189,0,0,0,4.931-30.462q-8.092,13.533-16.184,27.068a52.308,52.308,0,0,0-5.293-28.742,206.714,206.714,0,0,0-6.973,22.294,58.232,58.232,0,0,0-12.081-20,225.088,225.088,0,0,0-.742,25.718l-15.871-12.5a37.209,37.209,0,0,0,5.473,21,36.1,36.1,0,0,1-15.078-7.1,73.085,73.085,0,0,0,46.951,39.845" transform="translate(-1026.802 -336.559)" fill="url(#linear-gradient-22)"/>
          <path id="Path_762" data-name="Path 762" d="M1089.607,430.687c3.833-1.444,7.114-6.742,9.622-9.981a81.367,81.367,0,0,0,13.439-25.937,104.989,104.989,0,0,0-12.608,9.814,81.072,81.072,0,0,0,3.469-21.421l-11.379,19.029a36.794,36.794,0,0,0-3.721-20.208,145.594,145.594,0,0,0-4.9,15.678,40.975,40.975,0,0,0-8.494-14.063,157.333,157.333,0,0,0-.522,18.083q-5.581-4.392-11.165-8.786a26.19,26.19,0,0,0,3.852,14.762,25.34,25.34,0,0,1-10.6-4.993,51.391,51.391,0,0,0,33.017,28.021" transform="translate(-1017.801 -323.225)" fill="url(#linear-gradient-23)"/>
        </g>
      </g>
      <g id="Group_661" data-name="Group 661" transform="translate(654.169 516.71)">
        <g id="Group_660" data-name="Group 660">
          <path id="Path_763" data-name="Path 763" d="M889.713,428.869c3.7,1.5,9.56-.126,13.5-.787a79.522,79.522,0,0,0,26.8-9.707,102.736,102.736,0,0,0-15.539-1.3A79.187,79.187,0,0,0,931.143,404q-10.375,3.062-20.754,6.118a35.925,35.925,0,0,0,10.7-16.953,140.581,140.581,0,0,0-13.892,8,39.952,39.952,0,0,0,3.214-15.7,154.106,154.106,0,0,0-12.338,12.622q-1.1-6.843-2.191-13.685a25.549,25.549,0,0,0-7.007,13.133,24.765,24.765,0,0,1-4.3-10.6,50.142,50.142,0,0,0,5.132,41.937" transform="translate(-882.137 -384.395)" fill="url(#linear-gradient-24)"/>
          <path id="Path_764" data-name="Path 764" d="M887.923,419.342c2.427.983,6.263-.08,8.845-.517a52.062,52.062,0,0,0,17.553-6.357,67.1,67.1,0,0,0-10.176-.857,51.7,51.7,0,0,0,10.913-8.556l-13.591,4a23.527,23.527,0,0,0,7.01-11.106,92.328,92.328,0,0,0-9.1,5.242,26.228,26.228,0,0,0,2.105-10.289,101.1,101.1,0,0,0-8.081,8.269q-.719-4.488-1.436-8.965a16.743,16.743,0,0,0-4.591,8.6,16.214,16.214,0,0,1-2.812-6.943,32.832,32.832,0,0,0,3.359,27.47" transform="translate(-880.754 -374.63)" fill="url(#linear-gradient-25)"/>
          <path id="Path_765" data-name="Path 765" d="M886.973,414.063c1.706.688,4.4-.062,6.214-.364a36.639,36.639,0,0,0,12.349-4.471,47.117,47.117,0,0,0-7.157-.6,36.309,36.309,0,0,0,7.674-6.019q-4.777,1.41-9.557,2.818a16.565,16.565,0,0,0,4.929-7.806,63.873,63.873,0,0,0-6.4,3.683,18.358,18.358,0,0,0,1.479-7.235,70.973,70.973,0,0,0-5.681,5.815q-.5-3.154-1.01-6.306a11.775,11.775,0,0,0-3.228,6.048,11.443,11.443,0,0,1-1.98-4.878,23.08,23.08,0,0,0,2.365,19.316" transform="translate(-879.88 -368.982)" fill="url(#linear-gradient-26)"/>
        </g>
      </g>
    </g>
    <g id="Group_674" data-name="Group 674" transform="translate(1410.825 429.193)">
      <g id="Group_663" data-name="Group 663" transform="translate(0 232.619)">
        <path id="Path_766" data-name="Path 766" d="M923.67,284.342s1.433,2.912.809,3.329-5.748-2.167-6.614-2.076a2.1,2.1,0,0,0,.014,3.013c2.989.9,13.246,4.013,13.246,4.013Z" transform="translate(-916.362 -280.659)" fill="#ffa96e"/>
        <path id="Path_767" data-name="Path 767" d="M947.835,291.764a1.311,1.311,0,0,1-.455.193c-1.926.426-14.567,3.2-15.71,2.973-1.235-.244-9.381-5.183-9.381-5.183l-5.381-6.664a4.007,4.007,0,0,1,3.78,1.013c1.329-.115,3.809-.155,5.446,3.249,2.807,2.3,8.73.688,8.73.688s5.636-1.5,8.055-.771l4.9,1.487a1.562,1.562,0,0,1,.854.651h0a1.5,1.5,0,0,1-.383,2.065Z" transform="translate(-916.907 -282.967)" fill="#ffa96e"/>
      </g>
      <g id="Group_668" data-name="Group 668" transform="translate(15.517)">
        <path id="Path_768" data-name="Path 768" d="M961.331,217.021a26.733,26.733,0,0,0-4.013,23.677c4.685,15.434,4.859,44,2.309,54.685-3.611,15.153-24.836,28.04-23.725,48.99s20.379,23.355,30.2,21.327,12.1-13.449,27.4-9.327c12.215,3.287,24.054,7.739,36.6,9.8,14.641,2.4,41.053-2.266,39.767-22.5-.421-6.533-6.581-10.865-9.812-16.117-4.267-6.948-6.145-15.083-7.894-22.935-4.115-18.461-3.715-37.769-5.973-56.511-1.374-11.4-1.712-32.931-11.167-41.361C1024.7,197.544,984.713,185.357,961.331,217.021Z" transform="translate(-900.608 -195.41)" fill="#4d128c"/>
        <path id="Path_769" data-name="Path 769" d="M972.177,259.316c-7.342,11.481-18.678,9.19-16.884-2.539l-.383-23.588,17.312-2.36,1.527,22.391A10.051,10.051,0,0,1,972.177,259.316Z" transform="translate(-868.63 -137.869)" fill="#ffa96e"/>
        <path id="Path_770" data-name="Path 770" d="M955.91,248.977,973.29,233.8,973,230.54l-18.593,1.672,1.505,16.766Z" transform="translate(-869.478 -138.355)" fill="#ffa96e" fill-rule="evenodd" opacity="0.57" style="mix-blend-mode: multiply;isolation: isolate"/>
        <g id="Group_664" data-name="Group 664" transform="translate(0 525.357)">
          <path id="Path_771" data-name="Path 771" d="M968.995,403.551c.078-1.511.188-3.287.329-4.666.3-2.955.287-6.011.287-6.011l6.5-.576s5.261,7.773,8.727,10.674,9.959,4.961,9.959,4.961,11.331,4.214,13.345,6.15-1.736,2-4.007,2.539-15.161,1.409-18.887.988-6.471-3.729-8.507-3.616-5.826.5-7.259-.313c-1.92-1.082-.488-10.131-.488-10.131Z" transform="translate(-845.854 -392.178)" fill="#ff407a"/>
          <path id="Path_772" data-name="Path 772" d="M923.076,421.073c1.562-2.317,11.754-8.813,11.754-8.813s5.917-3.378,8.7-6.94,6.289-12.266,6.289-12.266l6.477-.8s.629,2.989,1.54,5.818c.428,1.321.908,3.032,1.3,4.492h0s3.3,8.545,1.653,10.007c-1.229,1.09-5.017,1.511-7.034,1.829s-4.01,4.125-7.562,5.32-16.334,3.048-18.67,2.995S921.511,423.39,923.076,421.073Z" transform="translate(-922.7 -392.253)" fill="#ff407a"/>
        </g>
        <path id="Path_773" data-name="Path 773" d="M973,245.658c-9.4,11.925-43.217,57.323-39.483,88.245a4.6,4.6,0,0,0,7.913,2.5c17.2-18.075,49.817-81.372,38.554-91.548A4.867,4.867,0,0,0,973,245.658Z" transform="translate(-905.015 -116.229)" fill="#ff407a"/>
        <path id="Path_774" data-name="Path 774" d="M1027.35,522.315c-.646,16.613,2.751,33.952,3.694,45.858,2.657.024,5.309.051,7.961.067,16.851-97.374,13.578-104.941,10.412-134.015-1.969-18.083,4.728-58.97-1.859-104.491-3.252-22.5-13.522-36.829-17.9-40.415l-53.669,6.043c-9.938,63.326-17.931,125.154-19.088,158.648-.857,24.694-16.473,84.158-24.625,116.331,2.673.249,6.823.3,9.5.522,11.046-22.659,24.017-45.333,28.935-67.609,6.3-28.544,6.3-28.544,14.556-62.222,2.422-10.465,17.122-72.722,20.572-95.076C1008.5,360.591,1029.624,463.915,1027.35,522.315Z" transform="translate(-906.633 -39.687)" fill="#1a2730"/>
        <path id="Path_775" data-name="Path 775" d="M1005.428,336.361c.8,7.95,12.887,36.6,20.693,51.007a6.046,6.046,0,0,1-3.921,8.789c-19.557,4.53-45.009,8.108-64.7,7.115a6.054,6.054,0,0,1-5.615-7.112c4.69-27.451,4.594-62.97,4.463-74.93a6.139,6.139,0,0,0-2.226-4.6c-5.652-4.8-10.817-14.191-11.315-16.578-3.362-9.083,12.737-22.613,13.779-47.535a5.384,5.384,0,0,1,3.445-4.363l12.07-5.432a6.088,6.088,0,0,1,2.063-.517l20.36-1.428a6.063,6.063,0,0,1,2.705.431l16.835,6.841c2.272.921,6.394,2.314,6.4,4.763.027,6.316-4.356,18.571-6.33,24.346C1011.4,285.178,1004.2,324.056,1005.428,336.361Z" transform="translate(-889.726 -121.205)" fill="#ff407a"/>
        <path id="Path_776" data-name="Path 776" d="M953.818,247.162l.492-7.382,7.157,7.85,17.469-9.786L977.4,248.6l-15.1,6.82Z" transform="translate(-870.463 -126.093)" fill="#ff407a"/>
        <path id="Path_777" data-name="Path 777" d="M953.818,247.162l.492-7.382,7.157,7.85,17.469-9.786L977.4,248.6l-15.1,6.82Z" transform="translate(-870.463 -126.093)" fill="#ff407a" style="mix-blend-mode: multiply;isolation: isolate"/>
        <path id="Path_778" data-name="Path 778" d="M953.818,247.162l.492-7.382,7.157,7.85,17.469-9.786L977.4,248.6l-15.1,6.82Z" transform="translate(-870.463 -126.093)" fill="#ff407a" style="mix-blend-mode: multiply;isolation: isolate"/>
        <path id="Path_779" data-name="Path 779" d="M971.962,237.844l5.99,9.956L965.5,255.482l-7.528-9.8Z" transform="translate(-863.489 -126.093)" fill="#ff407a"/>
        <path id="Path_780" data-name="Path 780" d="M961.885,243.7l-5.765,11.464L952.1,246.44l5.106-7.873Z" transform="translate(-873.354 -124.88)" fill="#ff407a"/>
        <path id="Path_781" data-name="Path 781" d="M971.962,237.844l5.99,9.956L965.5,255.482l-7.528-9.8Z" transform="translate(-863.489 -126.093)" fill="#ff407a" style="mix-blend-mode: soft-light;isolation: isolate"/>
        <path id="Path_782" data-name="Path 782" d="M961.885,243.7l-5.765,11.464L952.1,246.44l5.106-7.873Z" transform="translate(-873.354 -124.88)" fill="#ff407a" style="mix-blend-mode: soft-light;isolation: isolate"/>
        <path id="Path_783" data-name="Path 783" d="M1024.349,322.1c-13.76-12.7-43.506-38.811-47.565-44.932-3.954-5.965-10.674-21.488-8.917-31.742.525-3.054,5.068-2.135,6.5-1.141,11.457,7.948,54.4,47.233,67.7,77.365C1045.135,339.817,1032.669,336.517,1024.349,322.1Z" transform="translate(-847.362 -116.876)" fill="#ff407a"/>
        <path id="Path_784" data-name="Path 784" d="M944.639,252.612a30.26,30.26,0,0,0,.688-20.545c.059-8.451,4.447-18.1,11.044-24.389a27.214,27.214,0,0,1,19.139-8c14.516-.113,35.647,9.006,35.559,22.825l-7.256,40.389c-3.565,15.14-14.558,24.057-28.329,24.8-1.805.522-8.847.53-10.953.346C947.524,286.537,942.56,257.543,944.639,252.612Z" transform="translate(-886.619 -190.165)" fill="#ffa96e"/>
        <path id="Path_785" data-name="Path 785" d="M945.759,219.26a2.817,2.817,0,1,0,2.531-3.241A2.914,2.914,0,0,0,945.759,219.26Z" transform="translate(-884.013 -162.749)" fill="#300254"/>
        <path id="Path_786" data-name="Path 786" d="M955.274,219.83a2.815,2.815,0,1,0,2.531-3.244A2.909,2.909,0,0,0,955.274,219.83Z" transform="translate(-868.041 -161.797)" fill="#300254"/>
        <path id="Path_787" data-name="Path 787" d="M972.9,214.616" transform="translate(-838.428 -165.085)" fill="none" stroke="#e27f23" stroke-miterlimit="10" stroke-width="0.283"/>
        <path id="Path_788" data-name="Path 788" d="M971,211.342" transform="translate(-841.624 -170.581)" fill="none" stroke="#e27f23" stroke-miterlimit="10" stroke-width="0.283"/>
        <path id="Path_789" data-name="Path 789" d="M967.263,219.345a9.5,9.5,0,0,0-2.172-2.743,7.991,7.991,0,0,0-3.281-1.642,6.665,6.665,0,0,0-3.7-.163,5.743,5.743,0,0,0-3.019,2.1l.1.225a19.685,19.685,0,0,0,3.357.1c1,0,1.947-.359,2.954-.313a7.589,7.589,0,0,1,2.92.734,10.168,10.168,0,0,1,2.644,1.856Z" transform="translate(-868.331 -165.124)" fill="#300254"/>
        <path id="Path_790" data-name="Path 790" d="M945.669,216.109a4.771,4.771,0,0,1,1.779-.841,3.544,3.544,0,0,1,1.7.048c.56.155.991.611,1.589.7a6.82,6.82,0,0,0,2.21.11l.139-.187a3.228,3.228,0,0,0-1.366-2.044,3.763,3.763,0,0,0-2.411-.442,4.309,4.309,0,0,0-2.362.761,4.687,4.687,0,0,0-1.463,1.746Z" transform="translate(-884.448 -167.063)" fill="#300254"/>
        <path id="Path_791" data-name="Path 791" d="M956.2,215.507l-7.1,16.875,6.179.573Z" transform="translate(-878.39 -163.589)" fill="#ffa96e" opacity="0.68" style="mix-blend-mode: multiply;isolation: isolate"/>
        <path id="Path_792" data-name="Path 792" d="M965.865,252.924s16.873,5.207,14.264,20.842c0,0,5.848-58.66-6.378-71.48S965.865,252.924,965.865,252.924Z" transform="translate(-851.497 -188.653)" fill="#4d128c"/>
        <g id="Group_665" data-name="Group 665" transform="translate(67.122 72.996)">
          <path id="Path_793" data-name="Path 793" d="M966.393,224.107s-10.347,2.569-18.635-.731c.193,2.411,2.448,8.842,2.448,8.842S961.92,235.291,966.393,224.107Z" transform="translate(-947.758 -223.376)" fill="#300254"/>
          <path id="Path_794" data-name="Path 794" d="M947.758,223.376l1.886,4.393s9.675,2.21,16.251-3.549C959.089,225.5,951.982,225.029,947.758,223.376Z" transform="translate(-947.758 -223.376)" fill="#fff"/>
          <path id="Path_795" data-name="Path 795" d="M948.672,228.481a17.629,17.629,0,0,1,4.848-2.373,45.154,45.154,0,0,1,7.833-.5S956.9,230.374,948.672,228.481Z" transform="translate(-946.224 -219.638)" fill="#300254"/>
        </g>
        <path id="Path_796" data-name="Path 796" d="M1007.431,242.265c10.9-.884-3.193-17.7,6.97-22.134,1.61-.7,1.586-3.726,3.391-4.706-5.9-14.751-24.29-19.292-38.031-19.3-14.6-.008-41.656,16.4-36.2,38.4C951.515,241.287,998.653,242.977,1007.431,242.265Z" transform="translate(-888.882 -196.125)" fill="#4d128c"/>
        <g id="Group_666" data-name="Group 666" transform="translate(112.351 63.304)">
          <path id="Path_797" data-name="Path 797" d="M965.675,225.413c-1.865,4.045-1.133,8.186,1.639,9.247s6.531-1.358,8.4-5.406,1.136-8.186-1.637-9.247S967.544,221.365,965.675,225.413Z" transform="translate(-964.643 -219.758)" fill="#ffa96e"/>
          <path id="Path_798" data-name="Path 798" d="M966.216,222.579a3.2,3.2,0,0,1,2.068-2.046c1.144-.346,2.877.078,3.166,3.351s-1.779,6.314-3.557,6.078c-.562-.075-.937-.841-1.186-1.856a2.466,2.466,0,0,0,1.238-2.989,2.7,2.7,0,0,0-1.725-1.945C966.214,222.8,966.216,222.579,966.216,222.579Z" transform="translate(-962.003 -218.625)" fill="#ffa96e" fill-rule="evenodd" opacity="0.68" style="mix-blend-mode: multiply;isolation: isolate"/>
        </g>
        <g id="Group_667" data-name="Group 667" transform="translate(114.784 73.864)">
          <path id="Path_799" data-name="Path 799" d="M969.17,231.192c-4.822,0-4.827-7.492,0-7.492s4.83,7.492,0,7.492Z" transform="translate(-965.551 -223.7)" fill="#ff407a"/>
        </g>
      </g>
      <g id="Group_671" data-name="Group 671" transform="translate(3.624 165.666)">
        <path id="Path_800" data-name="Path 800" d="M1059.3,287.526v-4.439H921.963V287.9Z" transform="translate(-912.044 -215.813)" fill="#837bec"/>
        <g id="Group_670" data-name="Group 670">
          <g id="Group_669" data-name="Group 669">
            <path id="Path_801" data-name="Path 801" d="M926.1,329.6l76.376,1.315c4.615.078,8.242-4.023,8.095-9.142l-1.591-54.99c-.142-4.91-3.911-8.848-8.4-8.807l-74.461.651c-4.246.035-7.688,3.908-7.7,8.663l-.153,53.2C918.244,325.434,921.748,329.522,926.1,329.6Z" transform="translate(-918.26 -257.972)" fill="#837bec"/>
            <path id="Path_802" data-name="Path 802" d="M925.8,328.005l72.913,1.256c4.417.075,7.9-3.86,7.763-8.775l-1.463-53.1c-.128-4.72-3.737-8.507-8.049-8.473l-71.142.557c-4.085.032-7.39,3.755-7.406,8.333l-.147,51.443C918.254,324.006,921.621,327.933,925.8,328.005Z" transform="translate(-918.248 -256.389)" fill="#d7cadb"/>
          </g>
          <path id="Path_803" data-name="Path 803" d="M929.718,278.329a9.188,9.188,0,1,0,9.188-9.188A9.187,9.187,0,0,0,929.718,278.329Z" transform="translate(-899.026 -239.223)" fill="#f2f2f2"/>
        </g>
      </g>
      <path id="Path_804" data-name="Path 804" d="M1038.559,273.921a8.1,8.1,0,0,0-8.944-2.172c-4.16,1.588-11.419,4.514-22.932,9.6-15.089,6.67-40.539,13.634-40.539,13.634l.828,3.367s47.924,3.137,73.757-11.213a5.34,5.34,0,0,0,2.041-7.181A31.37,31.37,0,0,0,1038.559,273.921Z" transform="translate(-834.256 -70.081)" fill="#ff407a"/>
      <g id="Group_673" data-name="Group 673" transform="translate(102.67 222.009)">
        <g id="Group_672" data-name="Group 672">
          <path id="Path_805" data-name="Path 805" d="M962.436,286.948s1.524-2.791.86-3.193-6.115,2.079-7.042,1.993a1.883,1.883,0,0,1,.016-2.89l14.1-3.846Z" transform="translate(-954.657 -278.998)" fill="#ffa96e"/>
          <path id="Path_806" data-name="Path 806" d="M988.159,282.054a1.5,1.5,0,0,0-.485-.188c-2.052-.407-15.507-3.064-16.725-2.847-1.315.233-9.986,4.969-9.986,4.969l-5.727,6.391s2.512.592,4.023-.972a5.456,5.456,0,0,0,5.794-3.113c2.992-2.21,9.295-.664,9.295-.664s6,1.444,8.574.739l5.215-1.422a1.658,1.658,0,0,0,.911-.627h0a1.349,1.349,0,0,0-.4-1.98Z" transform="translate(-955.236 -279.006)" fill="#ffa96e"/>
        </g>
        <path id="Path_807" data-name="Path 807" d="M975.225,286.25l-7.273.241s3.038-5.5-2.213-6.445,7.782-.646,7.782-.646S976.481,279.693,975.225,286.25Z" transform="translate(-939.695 -278.421)" fill="#ff407a"/>
      </g>
      <path id="Path_808" data-name="Path 808" d="M932.666,288.547l21.764-2.877-28.487-.788S933.21,285.352,932.666,288.547Z" transform="translate(-901.739 -47.132)" fill="#ff407a"/>
    </g>
    <g id="Group_688" data-name="Group 688" transform="translate(1579.985 387.998)">
      <g id="Group_675" data-name="Group 675" transform="translate(220.91 216.624)">
        <path id="Path_809" data-name="Path 809" d="M1063.5,290.764c-.675-3.078-.975-.324-.975-.324,3.52-1.393,15.713-7.621,22.037-10.348,21.51-9.282,34.206-20.015,41.8-18.293,1.538.351,3.52,6.035,4.045,7.39.6,1.551-.967,6.022-2.2,7.356-5,5.408-19.008,19.943-61.4,22.059Z" transform="translate(-1062.529 -261.617)" fill="#300254"/>
      </g>
      <g id="Group_676" data-name="Group 676" transform="translate(221.871 216.623)">
        <path id="Path_810" data-name="Path 810" d="M1100.712,284.7a259.575,259.575,0,0,1-27.44-7.69c17.473-8.4,28.3-16.742,35.061-15.207,1.538.351,3.52,6.035,4.045,7.39.6,1.551-.967,6.022-2.2,7.356A50.161,50.161,0,0,1,1100.712,284.7Z" transform="translate(-1045.457 -261.616)" fill="#8dd1e4"/>
        <path id="Path_811" data-name="Path 811" d="M1065.235,275.469c4.87-2.349,10.811-5.266,14.665-6.935,9.212,3.038,18.435,5.992,27.829,8.29a80.742,80.742,0,0,1-13.554,5.223C1084.486,280.02,1074.8,278.011,1065.235,275.469Z" transform="translate(-1058.948 -250.004)" fill="#8dd1e4"/>
        <path id="Path_812" data-name="Path 812" d="M1086.211,278.176a159.517,159.517,0,0,1-20,2.194l-3.306-7.84-.013-.051C1070.587,274.708,1078.384,276.5,1086.211,278.176Z" transform="translate(-1062.888 -243.382)" fill="#8dd1e4"/>
      </g>
      <path id="Path_813" data-name="Path 813" d="M1009.753,243.784h0s3.694-3.707,4.878-7.631,1.883-8.647,2.826-12.354,2.754-9.4,2.831-10.854-1.337-2.341-3.223-1.179-3.222,6-3.619,7.674-1.412,4.939-2.748,4.214-3.932-8.794-4.873-11.59a120.69,120.69,0,0,0-5.9-14.631c-1.666-3.185-3.225-5.17-4.64-4.372s-.865,3.7,0,5.74,5.738,13.736,5.266,14.607-7.937-18.094-9.276-20.058-5.188-1.888-3.852,3.271,6.839,19.329,6.367,19.838-6.627-16.3-7.65-18.188-3.3-1.307-3.223,2.18,6.276,17.553,5.96,18.86-1.856-2.1-3.26-5.424c-1.572-3.721-3.316-7.771-4.771-7.546-1.259.2-1.125,3.844,1.152,8.856s4.562,14.2,5.5,16.886a73.129,73.129,0,0,0,5.9,11.119c.056.378.11.737.155,1.074a4.369,4.369,0,0,0,4.449,3.648h7.267A4.319,4.319,0,0,0,1009.753,243.784Z" transform="translate(-980.059 -161.579)" fill="#ffa96e"/>
      <g id="Group_683" data-name="Group 683" transform="translate(16.615)">
        <path id="Path_814" data-name="Path 814" d="M1130.059,251.757c.407-7.1-5.261-11.384-11.842-14.066-9.6-3.911-14.066-2.338-20.559-5.7-12.41-6.429-47.8.5-64.1,15.027-4.358,11.376-2.422,34.616-3.228,57.808-.833,23.974,4.741,86.82,4.741,86.82,24.834,11.789,78.246,4.642,80.93-3.63C1121,372.6,1127.731,292,1130.059,251.757Z" transform="translate(-912.428 -98.769)" fill="#300254"/>
        <g id="Group_677" data-name="Group 677" transform="translate(192.481 567.9)">
          <path id="Path_815" data-name="Path 815" d="M1058.178,412.259h28.862s1.848-8.478-4.72-19.5l-21.2.324A50.146,50.146,0,0,0,1058.178,412.259Z" transform="translate(-1058.119 -392.756)" fill="#1a2730"/>
        </g>
        <g id="Group_678" data-name="Group 678" transform="translate(96.795 565.762)">
          <path id="Path_816" data-name="Path 816" d="M1078.518,394.589s4.331,12.474,2.51,21.2H1022.4s-.038-7.206,23.489-12.791l16.356-11.039Z" transform="translate(-1022.397 -391.958)" fill="#1a2730"/>
        </g>
        <path id="Path_817" data-name="Path 817" d="M1033.461,345.423l1.377,129.18s10.913,4.471,26.1-1.835l6.482-119.743C1055.8,354.879,1043.085,351.418,1033.461,345.423Z" transform="translate(-907.029 95.688)" fill="#1a2730"/>
        <path id="Path_818" data-name="Path 818" d="M1117.016,437.715l-4.937-142.753-79.269-8.282,1.744,157.352c9.624,5.995,22.337,9.456,33.954,7.6l2.582-110.207,4.479-.225,9.488,107.588C1096.026,452.86,1110,447.3,1117.016,437.715Z" transform="translate(-908.122 -2.92)" fill="#1a2730"/>
        <path id="Path_819" data-name="Path 819" d="M1084.274,343.065c-7.016,9.587-20.99,15.145-31.959,11.074l16.565,122.6s7.468,5.454,24.587-.849Z" transform="translate(-875.38 91.73)" fill="#1a2730"/>
        <g id="Group_679" data-name="Group 679" transform="translate(0 79.189)">
          <path id="Path_820" data-name="Path 820" d="M995.361,266.766a10.235,10.235,0,0,0,9.745,13.594c45.821-.23,97.248-23.96,102.211-36.175a6.859,6.859,0,0,0,.357-1.114c.482-2.124,12.986-12.458,2.6-10.682-8.547,1.463-37.994,6.943-48.9,9.865-16.626,4.457-45.684,11.687-58.56,16.685a14.741,14.741,0,0,0-7.449,7.827Z" transform="translate(-971.958 -173.588)" fill="#300254"/>
          <path id="Path_821" data-name="Path 821" d="M986.274,216.058c-.5,17.813,13.626,67.14,15.293,75.894,1.176,6.185,3.477,14.317,8.031,19.351,13.974,15.442,19.795-2.957,18.263-9.257-2.665-10.961-26.639-92.019-27.627-91.735C1000.233,210.31,986.293,215.284,986.274,216.058Z" transform="translate(-986.261 -210.309)" fill="#300254"/>
        </g>
        <path id="Path_822" data-name="Path 822" d="M1121.27,328.261c6.469.016,10.886-6.772,8.654-13.238-14.462-41.886-50.873-81.447-62.919-82.114a6.1,6.1,0,0,0-1.069.029,4.264,4.264,0,0,0-3.815,3.514c-1.926,8.124,11.615,30.081,17.526,39.143,9.008,13.808,24.266,38.12,32.572,48.323a13.358,13.358,0,0,0,9.049,4.342Z" transform="translate(-859.229 -93.199)" fill="#300254"/>
        <path id="Path_823" data-name="Path 823" d="M986.274,216.058c.019-.774,13.958-5.748,13.958-5.748.841-.241,18.252,58.175,25.115,82.5,14.575-4.634,36.649-10.171,50.326-13.841,10.91-2.922,40.357-8.4,48.9-9.865.043-.005.073-.005.112-.011,17.055-7.066,37.871-9.383,46.8-4.757,6.493,3.364,10.961,1.792,20.559,5.7,6.581,2.681,12.249,6.97,11.842,14.066-2.328,40.241-9.062,120.847-14.058,136.257-2.684,8.272-56.1,15.418-80.93,3.63,0,0-5.574-62.846-4.741-86.82.53-15.258-.12-30.515.613-42.424-19.5,10.747-52.59,21.705-83.472,22.289a6.96,6.96,0,0,1-4.851-.388,10.253,10.253,0,0,1-5.5-3.93c-.445-.439-.895-.908-1.358-1.42-4.554-5.033-6.855-13.168-8.031-19.351C999.9,283.2,985.776,233.871,986.274,216.058Z" transform="translate(-986.261 -131.12)" fill="#300254"/>
        <path id="Path_824" data-name="Path 824" d="M1121.27,328.261c6.469.016,10.886-6.772,8.654-13.238-14.462-41.886-50.873-81.447-62.919-82.114a6.1,6.1,0,0,0-1.069.029,4.264,4.264,0,0,0-3.815,3.514c-1.926,8.124,11.615,30.081,17.526,39.143,9.008,13.808,24.266,38.12,32.572,48.323a13.358,13.358,0,0,0,9.049,4.342Z" transform="translate(-859.229 -93.199)" fill="#300254"/>
        <g id="Group_680" data-name="Group 680" transform="translate(0 79.189)">
          <path id="Path_825" data-name="Path 825" d="M1043.575,231.929c12.831-3,25.313-3.26,31.707.051,4.966,2.572,8.762,2.277,14.556,3.731Q1066.691,234.011,1043.575,231.929Z" transform="translate(-890.052 -177.948)" fill="#8dd1e4"/>
          <path id="Path_826" data-name="Path 826" d="M1009.455,225.205c1.9,6.335,3.846,12.895,5.7,19.187q-11.487-1.089-22.983-2.132c-1.444-5.912-2.93-12.223-4.259-18.394C995.094,224.252,1002.276,224.651,1009.455,225.205Z" transform="translate(-983.493 -187.551)" fill="#8dd1e4"/>
          <path id="Path_827" data-name="Path 827" d="M986.968,226.071a67.369,67.369,0,0,1-.694-10.013c.019-.774,13.959-5.748,13.959-5.748.281-.08,2.435,6.461,5.424,16.085Q996.311,226.306,986.968,226.071Z" transform="translate(-986.261 -210.309)" fill="#8dd1e4"/>
          <path id="Path_828" data-name="Path 828" d="M1006.335,218.448c1.069,3.482,2.207,7.219,3.383,11.119-7.013-.52-14.031-.911-21.051-1.288-.712-3.525-1.339-6.938-1.859-10.152Q996.568,218.36,1006.335,218.448Z" transform="translate(-985.343 -197.185)" fill="#8dd1e4"/>
          <path id="Path_829" data-name="Path 829" d="M1026.709,238.43c11.8-2.387,24.767-4.768,29.971-5.66.043-.005.073-.005.112-.011.675-.281,1.363-.538,2.052-.8,24.121,2.274,48.272,4.173,72.441,5.856,3,2.491,4.955,5.714,4.709,9.959-.054.863-.1,1.771-.161,2.671Q1081.306,244.1,1026.709,238.43Z" transform="translate(-918.364 -173.971)" fill="#8dd1e4"/>
          <path id="Path_830" data-name="Path 830" d="M1079.616,257.594c.059-1.872.129-3.7.236-5.438-2.807,1.546-5.922,3.094-9.244,4.618q-34.776-3.15-69.5-6.769c14.574-4.589,36.167-10.013,49.638-13.626.809-.217,1.757-.453,2.759-.7q62.535,6.372,124.983,13.624c-.318,5.055-.691,10.551-1.106,16.318Q1128.477,261.876,1079.616,257.594Z" transform="translate(-961.335 -167.714)" fill="#8dd1e4"/>
          <path id="Path_831" data-name="Path 831" d="M994.872,252.322c-.908-3.972-2.767-11.119-4.886-19.618q11.624,1.073,23.24,2.164c2.242,7.658,4.264,14.666,5.786,20.058Q1006.942,253.66,994.872,252.322Z" transform="translate(-980.008 -172.715)" fill="#8dd1e4"/>
          <path id="Path_832" data-name="Path 832" d="M1030.366,260.8c.005-5.2-.021-10.262.038-15.016q48.718,4.347,97.5,8.025c-.351,4.76-.731,9.678-1.133,14.666Q1078.544,264.958,1030.366,260.8Z" transform="translate(-912.228 -150.767)" fill="#8dd1e4"/>
          <path id="Path_833" data-name="Path 833" d="M1030.276,274.254c-.051-3.463-.04-6.614.054-9.263.137-3.922.185-7.819.209-11.682q47.982,4.114,96.013,7.645c-.463,5.609-.948,11.277-1.455,16.894C1093.492,276.553,1061.868,275.69,1030.276,274.254Z" transform="translate(-912.427 -138.125)" fill="#8dd1e4"/>
          <path id="Path_834" data-name="Path 834" d="M1044.711,276.944c-4.615-.407-9.255-.742-13.91-1.042-.217-4.479-.389-8.821-.5-12.844,31.4,1.422,62.836,2.285,94.245,3.568-.573,6.222-1.171,12.324-1.776,18.185Q1083.784,280.428,1044.711,276.944Z" transform="translate(-912.341 -121.761)" fill="#8dd1e4"/>
          <path id="Path_835" data-name="Path 835" d="M1032.065,290.792c-.252-3.188-.525-6.731-.8-10.5,28.734,2.735,57.492,5,86.365,5.111-.506,3.528-1,6.662-1.495,9.378C1088.057,294.679,1060.017,293.262,1032.065,290.792Z" transform="translate(-910.717 -92.837)" fill="#8dd1e4"/>
          <path id="Path_836" data-name="Path 836" d="M1114.335,290.094c-.273,1.16-.544,2.154-.8,2.965-2.684,8.272-56.1,15.418-80.93,3.63,0,0-.362-4.082-.884-10.54C1059.189,288.564,1086.742,289.962,1114.335,290.094Z" transform="translate(-909.957 -83.002)" fill="#8dd1e4"/>
          <path id="Path_837" data-name="Path 837" d="M1032.034,292.778c-.52-7.358-1.034-15.3-1.452-23.023,2.9.2,5.8.421,8.69.672q41.292,3.588,82.478,8.242c-.752,6.972-1.513,13.476-2.271,19.259C1090.243,297.849,1061.124,295.548,1032.034,292.778Z" transform="translate(-911.862 -110.52)" fill="#8dd1e4"/>
          <path id="Path_838" data-name="Path 838" d="M1000.2,258.77c-.209-.22-.415-.421-.629-.656-3.8-4.2-6.016-10.538-7.334-16.12q41.574,4.593,83.231,8.414a209.009,209.009,0,0,1-42.1,11.376Q1016.785,260.289,1000.2,258.77Z" transform="translate(-976.233 -157.12)" fill="#8dd1e4"/>
          <path id="Path_839" data-name="Path 839" d="M1064.177,245.726c-1.733-4.46-2.662-8.387-2.055-10.942a5.5,5.5,0,0,1,.335-.889c4.176.3,8.349.571,12.526.857a95.889,95.889,0,0,1,15.587,14.068Q1077.375,247.269,1064.177,245.726Z" transform="translate(-859.229 -170.717)" fill="#8dd1e4"/>
          <path id="Path_840" data-name="Path 840" d="M1073.444,257.893a188.479,188.479,0,0,1-9.788-17.556c9.71,1.117,19.415,2.28,29.125,3.429a205.573,205.573,0,0,1,12.469,16.527Q1089.343,259.112,1073.444,257.893Z" transform="translate(-856.343 -159.902)" fill="#8dd1e4"/>
          <path id="Path_841" data-name="Path 841" d="M1078.59,264.371c-3.667-5.671-7.136-11.079-9.991-15.456q15.964,1.218,31.932,2.4c3.072,4.824,6.008,9.882,8.719,15.078C1099.03,265.742,1088.808,265.086,1078.59,264.371Z" transform="translate(-848.047 -145.503)" fill="#8dd1e4"/>
          <path id="Path_842" data-name="Path 842" d="M1085.006,273.69c-3.568-5.132-7.5-11.052-11.363-16.983,9.936.691,19.876,1.313,29.811,1.945a153.808,153.808,0,0,1,6.82,16.407c.027.075.038.147.064.228Q1097.673,274.39,1085.006,273.69Z" transform="translate(-839.578 -132.423)" fill="#8dd1e4"/>
          <path id="Path_843" data-name="Path 843" d="M1101.136,266.447a9.328,9.328,0,0,1-9.038,7.832,13.358,13.358,0,0,1-9.049-4.342c-1.125-1.382-2.389-3.043-3.734-4.88Q1090.228,265.672,1101.136,266.447Z" transform="translate(-830.057 -118.406)" fill="#8dd1e4"/>
        </g>
        <path id="Path_844" data-name="Path 844" d="M1064.667,249.9c-9.874,13.412-22.053,8.277-18.7-5.349l2.518-23.816,19.136.07-1.856,26.052A5.836,5.836,0,0,1,1064.667,249.9Z" transform="translate(-886.99 -113.625)" fill="#ffa96e"/>
        <path id="Path_845" data-name="Path 845" d="M1045.633,243.793l21.461-19.138.178-3.58-20.422-1.015-.916,18.416Z" transform="translate(-886.597 -114.75)" fill="#ffa96e" fill-rule="evenodd" style="mix-blend-mode: multiply;isolation: isolate"/>
        <path id="Path_846" data-name="Path 846" d="M1116.372,199.962c-7.6-6.622-24.766-9.863-34.053-11.09a31.7,31.7,0,0,0-22.528,5.438c-8.545,5.751-15.094,15.667-16.45,24.93,0,0,2.28,16.171-4.562,23.374-1.755,1.846-5.285,9.2-.7,22.506,1.144,3.313,3.651,8.821,5.14,11.952,1.24,2.614,2.183,3.825,5.084,4.846,3.991,1.4,8.328,1.779,12.5,2.3.469.059.469.059,1.382.177,2.208.287,1.16.536,3.373.222,15.689,1.4,29.5-6.536,35.827-22.428l18.981-37.07C1123.253,216.517,1123.213,205.928,1116.372,199.962Z" transform="translate(-903.066 -167.583)" fill="#ffa96e"/>
        <path id="Path_847" data-name="Path 847" d="M1051.238,208.5a1.695,1.695,0,1,0,1.779-1.722A1.753,1.753,0,0,0,1051.238,208.5Z" transform="translate(-877.193 -137.057)" fill="#300254"/>
        <path id="Path_848" data-name="Path 848" d="M1039.417,206.607a1.7,1.7,0,1,0,1.779-1.722A1.753,1.753,0,0,0,1039.417,206.607Z" transform="translate(-897.034 -140.229)" fill="#300254"/>
        <path id="Path_849" data-name="Path 849" d="M1052.206,205.166l-10.262,17.227,6.616,1.558Z" transform="translate(-892.789 -139.753)" fill="#ffa96e" style="mix-blend-mode: multiply;isolation: isolate"/>
        <path id="Path_850" data-name="Path 850" d="M1050.469,209.5l18.515,3.848,1.575-4.349-16.184-7.285-3.586-1.615Z" transform="translate(-878.479 -148.259)" fill="#300254"/>
        <path id="Path_851" data-name="Path 851" d="M1049.022,207.48l3.555-7.831-7.052,1.206-6.8,2.71.345,3.915Z" transform="translate(-898.197 -149.014)" fill="#300254"/>
        <g id="Group_681" data-name="Group 681" transform="translate(144.057 89.582)">
          <path id="Path_852" data-name="Path 852" d="M1061.754,216.873s-12.29,1.918-21.713-2.684c.038,2.78,2.172,10.369,2.172,10.369S1055.658,229.24,1061.754,216.873Z" transform="translate(-1040.041 -214.189)" fill="#300254"/>
          <path id="Path_853" data-name="Path 853" d="M1040.041,214.189l1.856,5.218s11.135,3.49,19.27-2.454C1053.11,217.746,1044.844,216.5,1040.041,214.189Z" transform="translate(-1040.041 -214.189)" fill="#fff"/>
        </g>
        <g id="Group_682" data-name="Group 682" transform="translate(193.004 77.175)">
          <path id="Path_854" data-name="Path 854" d="M1061.055,217.036c-3.857,6-3.614,12.724.546,15.019s10.656-.7,14.513-6.7,3.611-12.726-.546-15.022S1064.911,211.035,1061.055,217.036Z" transform="translate(-1058.314 -209.557)" fill="#ffa96e"/>
          <path id="Path_855" data-name="Path 855" d="M1061.64,213.38a5.125,5.125,0,0,1,3.734-2.786c1.888-.295,4.54.761,4.275,6.014s-4.224,9.611-6.986,8.848c-.876-.244-1.3-1.543-1.47-3.206a3.946,3.946,0,0,0,2.625-4.463,4.326,4.326,0,0,0-2.309-3.469C1061.587,213.734,1061.64,213.38,1061.64,213.38Z" transform="translate(-1053.481 -207.892)" fill="#ffa96e" fill-rule="evenodd" style="mix-blend-mode: multiply;isolation: isolate"/>
        </g>
        <path id="Path_856" data-name="Path 856" d="M1103.7,259.027c-1.934-1.347,4.484-4.814,4.353-7.173-.517-9.182-5.381-14.789-2.1-23.382-7.439.337-8.376-9.07-9.772-16.385a35.691,35.691,0,0,1-22.983-3.1,13,13,0,0,1-13.272,6.809c-1.7-.271-3.464-.881-5.092-.321a8.4,8.4,0,0,0-2.655,1.854c-3.445,3.062-8.8,7.693-9.544,9.635-8.88-4-5.553-18.268-1.109-21.844,8.628-6.943,11.663-1.947,15.453-1.345-1.594-3.493-2.909-10.985,9.2-17.591,23.9-13.032,17.221,1.412,28.5,1.626,3.035.056,6.206.244,8.8,1.8s4.364,4.937,3.131,7.706a17.077,17.077,0,0,1,13.594,6.005c2.2,2.633,3.5,6.638,1.513,9.432,3.825,1.979,7.144,5.405,7.913,9.643s-1.7,9.134-5.888,10.133a18.27,18.27,0,0,1-4.237,16.8c-2.735,2.93-6.646,5.261-7.458,9.19" transform="translate(-901.001 -180.746)" fill="#4d128c"/>
      </g>
      <path id="Path_857" data-name="Path 857" d="M1075.343,231.808s-16.7-4.768-31.8,0l.584,14.735a8.56,8.56,0,0,0,15.2,5.047Z" transform="translate(-873.497 -98.588)" fill="#ffa96e"/>
      <g id="Group_686" data-name="Group 686" transform="translate(114.859 175.567)">
        <path id="Path_858" data-name="Path 858" d="M1170.142,277.135V272.5H1026.8v5.02Z" transform="translate(-1016.451 -202.286)" fill="#8dd1e4"/>
        <g id="Group_685" data-name="Group 685">
          <g id="Group_684" data-name="Group 684">
            <path id="Path_859" data-name="Path 859" d="M1031.121,321.042l79.714,1.374c4.813.083,8.6-4.195,8.449-9.541l-1.663-57.39c-.148-5.127-4.08-9.239-8.767-9.2l-77.715.678c-4.428.04-8.023,4.082-8.039,9.046l-.161,55.52C1022.925,316.7,1026.581,320.964,1031.121,321.042Z" transform="translate(-1022.938 -246.289)" fill="#8dd1e4"/>
            <path id="Path_860" data-name="Path 860" d="M1030.81,319.382,1106.9,320.7c4.615.078,8.25-4.029,8.109-9.158l-1.527-55.421c-.137-4.926-3.9-8.88-8.4-8.845l-74.255.584c-4.259.035-7.712,3.922-7.728,8.7l-.158,53.688C1022.932,315.212,1026.446,319.31,1030.81,319.382Z" transform="translate(-1022.926 -244.637)" fill="#d7cadb"/>
          </g>
          <path id="Path_861" data-name="Path 861" d="M1034.9,267.536a9.591,9.591,0,1,0,9.59-9.59A9.588,9.588,0,0,0,1034.9,267.536Z" transform="translate(-1002.863 -226.721)" fill="#f2f2f2"/>
        </g>
      </g>
      <path id="Path_862" data-name="Path 862" d="M1071,278.55l22.5-4.348h-31.734S1071.375,275.185,1071,278.55Z" transform="translate(-842.901 -23.866)" fill="#300254"/>
      <g id="Group_687" data-name="Group 687" transform="translate(206.559 248.045)">
        <path id="Path_863" data-name="Path 863" d="M1070.63,274.025s4.779,1.235,7.077,1.527,7.522-.643,7.522-.643,1.468,3.091-1.58,4.38-6.051-1.082-7.977.6c-1.38,1.2-17.173,2.462-17.486-4.275C1058.145,274.681,1070.63,274.025,1070.63,274.025Z" transform="translate(-1055.47 -272.208)" fill="#ffa96e"/>
        <path id="Path_864" data-name="Path 864" d="M1068,284.221s.876-9.906-1.827-10.49-4.251,9.373-3.142,10.819S1067.129,287.443,1068,284.221Z" transform="translate(-1047.938 -272.742)" fill="#ffa96e"/>
        <path id="Path_865" data-name="Path 865" d="M1066.3,283.837s1.543-9.847-1.315-10.463-5.116,9.281-3.943,10.811S1065.379,287.247,1066.3,283.837Z" transform="translate(-1051.205 -273.347)" fill="#ffa96e"/>
        <path id="Path_866" data-name="Path 866" d="M1063.866,283.122s1.7-8.864-.876-9.418-4.931,8.352-3.871,9.729S1063.03,286.2,1063.866,283.122Z" transform="translate(-1054.339 -272.79)" fill="#ffa96e"/>
        <path id="Path_867" data-name="Path 867" d="M1061.681,283.274s1.805-9.265-.525-9.766-4.725,8.8-3.769,10.048S1060.928,286.057,1061.681,283.274Z" transform="translate(-1057.171 -273.11)" fill="#ffa96e"/>
      </g>
    </g>
  </g>
</svg>
